<?xml version="1.0" encoding="UTF-8"?>
<svg id="Layer_1" xmlns="http://www.w3.org/2000/svg" version="1.1" viewBox="0 0 720 480">
  <!-- Generator: Adobe Illustrator 29.3.1, SVG Export Plug-In . SVG Version: 2.1.0 Build 151)  -->
  <defs>
    <style>
      .st0 {
        fill: #fff;
      }
    </style>
  </defs>
  <g>
    <path class="st0" d="M353.3,50.2c2.3,0,4.6.5,6.8,1.5,10.4,5,21.6,11,31.3,17.6,3.9,2.7,6.1,7.3,6.1,12.1,0,11.8,0,23.6,0,35.5,0,4.8-2.2,9.4-6.1,12.1-9.7,6.6-20.9,12.6-31.3,17.6-2.1,1-4.4,1.5-6.8,1.5s-4.6-.5-6.8-1.5c-10.4-5-21.6-11-31.3-17.6-3.9-2.7-6.1-7.3-6.1-12.1,0-11.8,0-23.6,0-35.5,0-4.8,2.2-9.4,6.1-12.1,9.7-6.6,20.9-12.6,31.3-17.6,2.1-1,4.4-1.5,6.8-1.5M353.3,39.8c-3.9,0-7.7.9-11.2,2.5,0,0,0,0,0,0-12.6,6-23.6,12.2-32.6,18.3-6.7,4.5-10.7,12.2-10.6,20.7v35.5c0,8.4,4,16.2,10.7,20.7,9.1,6.2,20,12.3,32.6,18.3,0,0,0,0,0,0,3.5,1.6,7.3,2.5,11.2,2.5s7.7-.9,11.2-2.5c0,0,0,0,0,0,12.6-6,23.6-12.2,32.6-18.3,6.7-4.5,10.7-12.2,10.6-20.7v-35.5c0-8.4-4-16.2-10.7-20.7-9.1-6.2-20-12.3-32.6-18.3,0,0,0,0,0,0-3.5-1.6-7.3-2.5-11.2-2.5h0Z"/>
    <path class="st0" d="M369.6,93.8c-3.3,1.4-5.9,2-7.5,2s-3.5-.7-4.6-2c-1.2-1.3-1.8-3-1.8-4.9v-9.1c0-4.1-.5-6.1-1.5-6.1s-2.1,1.4-4.3,4.1l-9,11.3c-3.2,3.9-5.7,5.9-7.9,5.9s-1.8-1.2-1.8-3.5.4-4.5,1.4-7l4.8-13.5c.6-1.6,1.2-3.2,2.2-4.6,1.3-2.1,2.5-3.2,3.6-3.2s2,1.2,2,3.6-.2,2.5-.8,3.8c-.4,1.1-.6,1.8-.6,2.2s0,.4.2.4c.8,0,3.5-3,8.2-8.9,2.4-3,4.5-4.5,6.1-4.5s2.5,1.3,3.2,4c.5,1.8.7,3.8.7,5.8v10.5c0,1.9.4,3.5,1.1,4.9.9,1.8,2.2,2.7,3.8,2.7s1.1-.1,2-.4c.9-.2,1.7-.3,2.3-.3,2.6,0,3.9.7,3.9,2.2s-1.9,3.1-5.7,4.6Z"/>
    <path class="st0" d="M371.7,124.7c-1.7.4-3.5.7-5.1.7s-3.9.6-5.4,1.7c-1.7,1.3-2.5,3-2.5,5s0,.7,0,1.3c0,.6,0,1.1,0,1.4,0,1.3-.2,2.5-.5,3.6-.4,1.5-1.2,2.3-2.1,2.3s-2.1-1-2.9-3c-.6-1.4-.9-2.9-1.1-4.5-.1-.9-.4-2.2-.9-3.8-1.1-2.7-4.2-4-9.3-4h-1.4c-1.8,0-3.6-.2-5.4-.7-2.5-.6-3.8-1.4-3.8-2.6s1.3-2,3.8-2.6c1.8-.4,3.6-.7,5.4-.7s3.8-.2,5.6-.6c2.5-.6,3.8-1.5,3.8-2.8s-1.1-2.2-3.1-2.9c-1.5-.6-3.1-.8-4.6-.8s-3-.2-4.4-.6c-2-.6-3-1.5-3-2.7s.9-2,2.8-2.6c1.4-.4,2.7-.6,4.1-.6s3-.4,4.2-1.1c1.5-.9,2.2-2,2.2-3.5s0-.3,0-.6c0-.3,0-.5,0-.7,0-1.1.2-2,.7-2.8.6-1.1,1.4-1.6,2.3-1.6,1.9,0,3.1,1.7,3.6,4.9.3,1.7,1.4,3,3.2,4.1,1.5.9,3.2,1.3,5.1,1.3s3,.2,4.5.6c2.1.6,3.2,1.5,3.2,2.6s-1,2-3,2.7c-1.4.4-2.8.6-4.3.6s-2.8.2-4.1.7c-1.8.6-2.7,1.5-2.7,2.7s1.4,2.3,4.1,3c1.9.5,3.8.7,5.6.7s3.6.2,5.4.7c2.5.6,3.8,1.4,3.8,2.6s-1.2,2-3.6,2.6Z"/>
    <path class="st0" d="M353.3,50.3c2.3,0,4.6.5,6.8,1.5,10.4,5,21.6,11,31.3,17.6,3.9,2.7,6.1,7.3,6.1,12.1,0,11.8,0,23.6,0,35.5,0,4.8-2.2,9.4-6.1,12.1-9.7,6.6-20.9,12.6-31.3,17.6-2.1,1-4.4,1.5-6.8,1.5s-4.6-.5-6.8-1.5c-10.4-5-21.6-11-31.3-17.6-3.9-2.7-6.1-7.3-6.1-12.1,0-11.8,0-23.6,0-35.5,0-4.8,2.2-9.4,6.1-12.1,9.7-6.6,20.9-12.6,31.3-17.6,2.1-1,4.4-1.5,6.8-1.5M353.3,40c-3.9,0-7.7.9-11.2,2.5,0,0,0,0,0,0-12.6,6-23.6,12.2-32.6,18.3-6.7,4.5-10.7,12.2-10.6,20.7v35.5c0,8.4,4,16.2,10.7,20.7,9.1,6.2,20,12.3,32.6,18.3,0,0,0,0,0,0,3.5,1.6,7.3,2.5,11.2,2.5s7.7-.9,11.2-2.5c0,0,0,0,0,0,12.6-6,23.6-12.2,32.6-18.3,6.7-4.5,10.7-12.2,10.6-20.7v-35.5c0-8.4-4-16.2-10.7-20.7-9.1-6.2-20-12.3-32.6-18.3,0,0,0,0,0,0-3.5-1.6-7.3-2.5-11.2-2.5h0Z"/>
  </g>
  <g>
    <path class="st0" d="M162.7,168.5c3.4,0,6.1,2.7,6.1,6.1v21.1c0,0,0,71.6,0,71.6,0,11.3-2.4,19.3-7.3,23.9-2.4,2.3-5.7,4-10.1,5.1-4.4,1.1-9.7,1.7-15.9,1.7h-54.6c-5.8,0-10.8-.6-14.8-1.7s-7.3-2.9-9.8-5.4c-2.5-2.5-4.4-5.6-5.5-9.5-1.1-3.9-1.7-8.6-1.7-14.1v-92.7c0-3.4,2.7-6.1,6.1-6.1h25.8s15.3,0,15.3,0c3.4,0,6.1,2.7,6.1,6.1v85.1c0,3.3.5,5.6,1.5,7,1,1.4,2.7,2.1,5.1,2.1s4.1-.7,5.1-2.1c1.1-1.4,1.6-3.8,1.6-7v-85.1c0-3.4,2.7-6.1,6.1-6.1h41.1Z"/>
    <path class="st0" d="M179,170.3h56.5l22.6,52.7v-52.7h52.2v127.7h-54l-25.1-60.1v60.1h-52.1v-127.7Z"/>
    <path class="st0" d="M320.5,176.4c0-3.4,2.8-6.1,6.1-6.1h78.7c5.9,0,11,.5,15.1,1.6,4.2,1,7.6,2.7,10.2,4.9,2.6,2.2,4.6,5.1,5.8,8.6,1.2,3.5,1.8,7.7,1.8,12.5v69.3c0,11.4-2.4,19.5-7.3,24.1-2.3,2.3-5.7,4-10,5.1-4.3,1.1-9.6,1.7-15.7,1.7h-78.7c-3.4,0-6.1-2.8-6.1-6.1v-115.4ZM373.6,268.7h4.5c2.9,0,4.9-.7,5.9-2s1.6-3.7,1.6-7.1v-51.1c0-3.5-.5-5.8-1.6-7.1s-3-2-5.9-2h-4.5c-.7,0-1.2.6-1.2,1.2v66.8c0,.7.6,1.2,1.2,1.2Z"/>
    <path class="st0" d="M448.4,176.2c0-3.3,2.6-5.9,5.9-5.9h82.1c3.3,0,5.9,2.6,5.9,5.9v17.3c0,3.3-2.6,5.9-5.9,5.9h-30.6c-3.3,0-5.9,2.6-5.9,5.9v8.3c0,3.3,2.6,5.9,5.9,5.9h25.9c3.3,0,5.9,2.6,5.9,5.9v17.3c0,3.3-2.6,5.9-5.9,5.9h-25.9c-3.3,0-5.9,2.6-5.9,5.9v8.4c0,3.3,2.6,5.9,5.9,5.9h30.6c3.3,0,5.9,2.6,5.9,5.9v17.3c0,3.3-2.6,5.9-5.9,5.9h-82.1c-3.3,0-5.9-2.6-5.9-5.9v-115.9Z"/>
    <path class="st0" d="M604.8,292.1c0,3.2-2.6,5.8-5.8,5.8h-40.4c-3.2,0-5.8-2.6-5.8-5.8v-116c0-3.2,2.6-5.8,5.8-5.8h79.4c6,0,11,.5,15.2,1.6,4.2,1,7.6,2.7,10.3,4.9,2.7,2.2,4.6,5.1,5.8,8.6,1.2,3.5,1.8,7.7,1.8,12.5v24.8c0,11.5-2.5,19.6-7.4,24.1-1.9,1.8-4.5,3.3-7.6,4.4,8.9,6,13.8,19.6,14.6,40.8.1,3.3-2.5,6.1-5.8,6.1h-40.4c-3.2,0-5.7-2.5-5.8-5.7-.6-16.5-3.5-26.6-8.9-30-2.1-1.3-4.8.2-4.8,2.7v27.2ZM608,199c-1.8,0-3.2,1.4-3.2,3.2v19.1c0,1.8,1.4,3.2,3.2,3.2h3.6c2.6,0,4.4-.7,5.6-2.1,1.1-1.4,1.7-3.7,1.7-7.1v-7.1c0-3.4-.6-5.7-1.7-7.1-1.1-1.4-2.9-2.1-5.4-2.1h-3.8Z"/>
  </g>
  <g>
    <path class="st0" d="M105.7,395.6c-.4-1.7-3-1.4-3,.4v38.1c0,3.3-2.7,6.1-6.1,6.1h-41.6c-3.3,0-6.1-2.7-6.1-6.1v-120.1c0-3.3,2.7-6.1,6.1-6.1h57.2c2.6,0,4.9,1.7,5.8,4.2l14.6,44.4c.5,1.4,2.5,1.4,2.9,0l14.6-44.4c.8-2.5,3.1-4.2,5.8-4.2h57.3c3.3,0,6.1,2.7,6.1,6.1v120.1c0,3.3-2.7,6.1-6.1,6.1h-41.7c-3.3,0-6.1-2.7-6.1-6.1v-38c0-1.8-2.6-2.1-3-.4l-10.2,39.9c-.7,2.7-3.1,4.6-5.9,4.6h-24.5c-2.8,0-5.2-1.9-5.9-4.5l-10.3-40Z"/>
    <path class="st0" d="M229.7,314.3c0-3.5,2.9-6.4,6.4-6.4h41c3.5,0,6.4,2.9,6.4,6.4v119.5c0,3.5-2.9,6.4-6.4,6.4h-41c-3.5,0-6.4-2.9-6.4-6.4v-119.5Z"/>
    <path class="st0" d="M294.1,308h58.5l23.4,54.5v-54.5h54.1v132.2h-55.9l-26-62.2v62.2h-53.9v-132.2Z"/>
    <path class="st0" d="M440.5,314.1c0-3.4,2.7-6.1,6.1-6.1h85c3.4,0,6.1,2.7,6.1,6.1v17.9c0,3.4-2.7,6.1-6.1,6.1h-31.7c-3.4,0-6.1,2.7-6.1,6.1v8.6c0,3.4,2.7,6.1,6.1,6.1h26.8c3.4,0,6.1,2.7,6.1,6.1v17.9c0,3.4-2.7,6.1-6.1,6.1h-26.8c-3.4,0-6.1,2.7-6.1,6.1v8.7c0,3.4,2.7,6.1,6.1,6.1h31.7c3.4,0,6.1,2.7,6.1,6.1v17.9c0,3.4-2.7,6.1-6.1,6.1h-85c-3.4,0-6.1-2.7-6.1-6.1v-120Z"/>
    <path class="st0" d="M602.4,434.1c0,3.3-2.7,6.1-6.1,6.1h-41.9c-3.3,0-6.1-2.7-6.1-6.1v-120.1c0-3.3,2.7-6.1,6.1-6.1h82.2c6.2,0,11.4.5,15.8,1.6,4.3,1.1,7.9,2.8,10.6,5,2.8,2.3,4.8,5.2,6,8.9,1.3,3.6,1.9,8,1.9,13v25.7c0,12-2.6,20.3-7.7,24.9-2,1.9-4.6,3.4-7.9,4.5,9.2,6.2,14.3,20.3,15.1,42.3.1,3.4-2.6,6.3-6.1,6.3h-41.9c-3.3,0-5.9-2.6-6-5.9-.6-17.1-3.6-27.5-9.2-31.1-2.1-1.4-4.9.2-4.9,2.8v28.2ZM605.8,337.8c-1.8,0-3.3,1.5-3.3,3.3v19.7c0,1.8,1.5,3.3,3.3,3.3h3.7c2.7,0,4.6-.7,5.8-2.1,1.2-1.4,1.8-3.9,1.8-7.3v-7.4c0-3.5-.6-5.9-1.7-7.4-1.1-1.5-3-2.2-5.6-2.2h-3.9Z"/>
  </g>
</svg>